# xmcd
#
# Track frame offsets:
#  150
#  13742
#  31630
#  54198
#  69596
#  82617
#  95412
#  111161
#  123502
#  146472
#
# Disc length: 2620 seconds
#
# Revision: 4
# Processed by: cddbd v1.5.2PL0 Copyright (c) Steve Scherf et al.
# Submitted via: Collectorz.com_Music_Collector 6.11
#
DISCID=720a3a0a,860a3a0a
DTITLE=Canned Heat - Boogie With Canned Heat
DYEAR=2000
DGENRE=Blues
TTITLE0=Evil Woman
TTITLE1=My Crime
TTITLE2=On The Road Again
TTITLE3=World In A Jug
TTITLE4=Turpentine Moan
TTITLE5=Whisky Headed Woman No. 2
TTITLE6=Amphetamine Annie
TTITLE7=An Owl Song
TTITLE8=Marie Laveau
TTITLE9=Fried Hockey Boogie
EXTD=
EXTT0=
EXTT1=
EXTT2=
EXTT3=
EXTT4=
EXTT5=
EXTT6=
EXTT7=
EXTT8=
EXTT9=
PLAYORDER=
